<svg xmlns="http://www.w3.org/2000/svg" xmlns:xlink="http://www.w3.org/1999/xlink" viewBox="0 0 280 200" width="280" height="200"><path d="M 89.750,77.422 C 91.967,73.006 91.750,72.922 93.750,68.422" stroke-width="2.250" stroke="rgb(0 135 255)" fill="none" stroke-linecap="round"></path><path d="M 93.750,68.422 C 94.638,63.646 95.467,64.006 96.750,59.422" stroke-width="2.250" stroke="rgb(0 135 255)" fill="none" stroke-linecap="round"></path><path d="M 96.750,59.422 C 101.416,49.336 101.638,49.646 107.750,40.422" stroke-width="2.250" stroke="rgb(0 135 255)" fill="none" stroke-linecap="round"></path><path d="M 107.750,40.422 C 115.505,30.697 114.916,30.336 123.750,21.422" stroke-width="2.250" stroke="rgb(0 135 255)" fill="none" stroke-linecap="round"></path><path d="M 123.750,21.422 C 127.849,17.517 127.505,17.197 131.750,13.422" stroke-width="2.250" stroke="rgb(0 135 255)" fill="none" stroke-linecap="round"></path><path d="M 131.750,13.422 C 136.722,4.575 137.849,7.017 143.750,0.422" stroke-width="2.250" stroke="rgb(0 135 255)" fill="none" stroke-linecap="round"></path><path d="M 143.750,0.422 C 153.442,-2.812 147.722,-1.925 153.750,0.422" stroke-width="2.250" stroke="rgb(0 135 255)" fill="none" stroke-linecap="round"></path><path d="M 153.750,0.422 C 150.052,11.047 154.442,7.688 145.750,21.422" stroke-width="2.250" stroke="rgb(0 135 255)" fill="none" stroke-linecap="round"></path><path d="M 145.750,21.422 C 141.514,31.554 141.552,31.547 136.750,41.422" stroke-width="2.250" stroke="rgb(0 135 255)" fill="none" stroke-linecap="round"></path><path d="M 136.750,41.422 C 134.119,45.853 134.514,46.054 131.750,50.422" stroke-width="2.250" stroke="rgb(0 135 255)" fill="none" stroke-linecap="round"></path><path d="M 131.750,50.422 C 127.132,59.365 127.119,59.353 122.750,68.422" stroke-width="2.250" stroke="rgb(0 135 255)" fill="none" stroke-linecap="round"></path><path d="M 122.750,68.422 C 119.657,74.882 119.632,74.865 116.750,81.422" stroke-width="2.250" stroke="rgb(0 135 255)" fill="none" stroke-linecap="round"></path><path d="M 116.750,81.422 C 115.750,83.922 115.657,83.882 114.750,86.422" stroke-width="2.250" stroke="rgb(0 135 255)" fill="none" stroke-linecap="round"></path><path d="M 114.750,86.422 C 113.750,88.922 113.750,88.922 112.750,91.422" stroke-width="2.250" stroke="rgb(0 135 255)" fill="none" stroke-linecap="round"></path><path d="M 112.750,91.422 C 109.389,95.061 111.750,93.922 110.750,96.422" stroke-width="2.250" stroke="rgb(0 135 255)" fill="none" stroke-linecap="round"></path><path d="M 110.750,96.422 C 115.688,98.156 113.389,99.061 120.750,99.422" stroke-width="2.250" stroke="rgb(0 135 255)" fill="none" stroke-linecap="round"></path><path d="M 120.750,99.422 C 131.630,102.643 131.688,102.156 142.750,104.422" stroke-width="2.250" stroke="rgb(0 135 255)" fill="none" stroke-linecap="round"></path><path d="M 142.750,104.422 C 156.726,106.228 156.630,106.643 170.750,107.422" stroke-width="2.250" stroke="rgb(0 135 255)" fill="none" stroke-linecap="round"></path><path d="M 170.750,107.422 C 180.247,108.042 180.226,108.228 189.750,108.422" stroke-width="2.250" stroke="rgb(0 135 255)" fill="none" stroke-linecap="round"></path><path d="M 189.750,108.422 C 192.763,108.635 192.747,108.542 195.750,108.422" stroke-width="2.250" stroke="rgb(0 135 255)" fill="none" stroke-linecap="round"></path><path d="M 195.750,108.422 C 204.308,109.097 199.763,108.135 203.750,107.422" stroke-width="2.250" stroke="rgb(0 135 255)" fill="none" stroke-linecap="round"></path><path d="M 203.750,107.422 C 198.963,101.700 202.808,104.597 192.750,99.422" stroke-width="2.250" stroke="rgb(0 135 255)" fill="none" stroke-linecap="round"></path><path d="M 192.750,99.422 C 183.236,98.003 183.963,96.200 173.750,96.422" stroke-width="2.250" stroke="rgb(0 135 255)" fill="none" stroke-linecap="round"></path><path d="M 173.750,96.422 C 168.303,94.833 168.236,95.503 162.750,94.422" stroke-width="2.250" stroke="rgb(0 135 255)" fill="none" stroke-linecap="round"></path><path d="M 162.750,94.422 C 154.738,94.137 154.803,93.833 146.750,94.422" stroke-width="2.250" stroke="rgb(0 135 255)" fill="none" stroke-linecap="round"></path><path d="M 146.750,94.422 C 140.600,94.252 140.738,94.637 134.750,95.422" stroke-width="2.250" stroke="rgb(0 135 255)" fill="none" stroke-linecap="round"></path><path d="M 134.750,95.422 C 126.006,96.376 130.600,96.252 126.750,98.422" stroke-width="2.250" stroke="rgb(0 135 255)" fill="none" stroke-linecap="round"></path><path d="M 126.750,98.422 C 132.192,103.708 128.006,101.876 138.750,106.422" stroke-width="2.250" stroke="rgb(0 135 255)" fill="none" stroke-linecap="round"></path><path d="M 138.750,106.422 C 147.198,108.711 146.692,109.708 155.750,110.422" stroke-width="2.250" stroke="rgb(0 135 255)" fill="none" stroke-linecap="round"></path><path d="M 155.750,110.422 C 163.750,111.907 159.698,111.211 163.750,111.422" stroke-width="2.250" stroke="rgb(0 135 255)" fill="none" stroke-linecap="round"></path><path d="M 163.750,111.422 C 159.908,109.332 163.750,110.907 155.750,108.422" stroke-width="2.250" stroke="rgb(0 135 255)" fill="none" stroke-linecap="round"></path><path d="M 155.750,108.422 C 143.815,105.825 143.908,105.832 131.750,104.422" stroke-width="2.250" stroke="rgb(0 135 255)" fill="none" stroke-linecap="round"></path><path d="M 131.750,104.422 C 122.143,102.816 122.315,103.325 112.750,103.422" stroke-width="2.250" stroke="rgb(0 135 255)" fill="none" stroke-linecap="round"></path><path d="M 112.750,103.422 C 105.613,103.504 106.643,103.816 100.750,106.422" stroke-width="2.250" stroke="rgb(0 135 255)" fill="none" stroke-linecap="round"></path><path d="M 100.750,106.422 C 98.007,109.334 98.113,108.004 97.750,112.422" stroke-width="2.250" stroke="rgb(0 135 255)" fill="none" stroke-linecap="round"></path></svg>